<svg width="256" height="42" viewBox="0 0 256 42" fill="none" xmlns="http://www.w3.org/2000/svg">
<path d="M10.5728 24.3442C17.067 27.5084 23.6459 26.9161 27.7941 25.9554V29.8314H17.2346V36.6459H33.1634V40.6164H10.5363" fill="#2597E9"/>
<path d="M65.5253 20.214C64.5513 19.2251 63.3052 18.4734 61.787 17.9624C60.2688 17.4513 58.4453 17.1958 56.3165 17.1958H43.7394V21.1315H55.228L55.306 21.1647C56.0078 21.2311 56.6815 21.3588 57.3303 21.5497C57.979 21.7388 58.5382 22.0557 59.0044 22.5021C59.2898 22.7924 59.5304 23.2371 59.7246 23.8394C59.9203 24.4417 60.0763 25.127 60.1925 25.8952C60.3086 26.6635 60.3866 27.4715 60.4264 28.3194C60.4646 29.1673 60.4646 29.9853 60.4264 30.7767C60.3866 31.5682 60.3103 32.2817 60.1925 32.9155C60.0763 33.551 59.9386 34.0355 59.7826 34.3707C59.3164 35.2617 58.6859 35.8573 57.8944 36.1593C57.1013 36.4596 56.2401 36.6339 55.3043 36.677V36.6438H50.4378V25.8703L43.7394 22.9019V40.6144H56.3165C58.4967 40.6144 60.3534 40.3473 61.8849 39.8146C63.4164 39.2804 64.6558 38.5022 65.6033 37.4801C66.5507 36.458 67.2393 35.2119 67.6674 33.7435C68.0954 32.275 68.3095 30.6191 68.3095 28.774C68.3095 26.9289 68.0871 25.2879 67.6474 23.8544C67.2061 22.4158 66.4992 21.2029 65.5253 20.214Z" fill="#2597E9"/>
<path d="M93.6195 31.4726C93.6195 32.4947 93.301 33.3293 92.6655 33.9748C92.0283 34.6202 91.2435 35.0931 90.3093 35.3918C89.3752 35.6921 88.3498 35.8199 87.2348 35.7751C86.1181 35.7303 85.0927 35.5361 84.1585 35.191C83.2227 34.8459 82.4395 34.363 81.8024 33.7408C81.1652 33.1186 80.8483 32.362 80.8483 31.4726V17.1965H74.1516V31.1391C74.1516 33.0522 74.5083 34.6418 75.2202 35.9094C75.9336 37.1771 76.9109 38.1893 78.1554 38.9442C79.3998 39.7008 80.8583 40.2335 82.5291 40.5454C84.2 40.8557 85.9953 41.0116 87.9134 41.0116C89.78 41.0116 91.4775 40.8059 93.0073 40.3944C94.5371 39.9829 95.8463 39.3607 96.9347 38.5261C98.0232 37.6915 98.8594 36.6644 99.4418 35.4416C100.026 34.2187 100.316 32.7851 100.316 31.1375V17.1948H93.6195V31.4726Z" fill="#2597E9"/>
<path d="M106.197 22.8431H117.879V40.5224H124.576V25.7783L117.996 22.8431H136.103V17.1055H106.197V22.8431Z" fill="#2597E9"/>
<path d="M159.641 30.2316C159.81 30.1104 159.971 29.981 160.127 29.8483C160.932 29.2045 161.549 28.3981 161.977 27.4291C162.405 26.4618 162.633 25.4612 162.657 24.4275C162.682 23.3938 162.508 22.3933 162.132 21.4259C161.757 20.4586 161.164 19.6423 160.359 18.9736C159.581 18.3514 158.737 17.8851 157.829 17.5732C156.921 17.2612 155.714 17.1069 154.209 17.1069H141.943V21.0758H151.056C152.612 21.0758 153.689 21.3314 154.288 21.8441C154.574 22.1112 154.789 22.4895 154.93 22.9773C155.073 23.4668 155.146 23.9779 155.146 24.5121C155.146 25.0448 155.06 25.5575 154.892 26.0469C154.723 26.5364 154.482 26.9031 154.17 27.147C153.522 27.6365 152.367 27.8804 150.706 27.8804H148.642V25.7782L141.945 22.7766V40.5222H148.642V31.8493H152.418L152.458 32.0501L157.52 40.5222H165.037L159.117 30.5817C159.298 30.4705 159.472 30.3527 159.641 30.2316Z" fill="#2597E9"/>
<path d="M193.538 17.1055H170.914V21.0744H193.538V17.1055Z" fill="#2597E9"/>
<path d="M177.612 29.7474H188.165V25.7785H177.612L170.914 22.8101V40.5225H193.538V36.5519H177.612V29.7474Z" fill="#2597E9"/>
<path d="M218.849 33.3827L206.116 17.1055H199.38V40.5224H206.076V24.1772L218.849 40.5224H225.546V17.1055H218.849V33.3827Z" fill="#2597E9"/>
<path d="M255.336 23.7605C254.895 22.3269 254.188 21.114 253.214 20.1251C252.24 19.1362 250.994 18.3846 249.476 17.8735C247.958 17.3625 246.134 17.1069 244.005 17.1069H231.428V21.0427H242.915L242.993 21.0758C243.695 21.1422 244.37 21.27 245.017 21.4608C245.666 21.6499 246.225 21.9669 246.692 22.4132C246.977 22.7036 247.218 23.1482 247.413 23.7505C247.608 24.3529 247.763 25.0381 247.88 25.8063C247.996 26.5746 248.074 27.3826 248.114 28.2305C248.153 29.0784 248.153 29.8964 248.114 30.6879C248.074 31.4793 247.997 32.1928 247.88 32.8266C247.763 33.4621 247.626 33.9466 247.47 34.2818C247.004 35.1728 246.373 35.7685 245.582 36.0705C244.79 36.3708 243.927 36.545 242.992 36.5881V36.5549H238.125V25.7815L231.428 22.8131V40.5255H244.005C246.186 40.5255 248.042 40.2584 249.575 39.7258C251.107 39.1915 252.346 38.4133 253.294 37.3912C254.241 36.3691 254.93 35.123 255.358 33.6546C255.786 32.1862 256 30.5302 256 28.6852C255.998 26.8334 255.778 25.1941 255.336 23.7605Z" fill="#2597E9"/>
<path d="M0 9.20052L21.8141 0L42.8782 9.15406L30.5816 12.9504L35.3983 14.9697L34.8392 29.0982L32.1064 19.6986C32.1064 19.6986 21.2151 24.6265 10.5777 19.4347L10.659 13.6589L0 9.20052Z" fill="#2597E9"/>
</svg>
