<svg width="18" height="15" viewBox="0 0 18 15" fill="none" xmlns="http://www.w3.org/2000/svg">
<path d="M10.2887 13.5804L10.9269 14.6C15.3453 11.5157 17.7999 7.76868 17.7999 4.68436C17.7999 1.70201 15.6889 0.300049 13.897 0.300049C11.6387 0.300049 10.0432 2.28828 10.0432 4.37848C10.0432 6.1373 11.1232 7.64123 12.5715 8.20201C12.9888 8.35495 13.3815 8.4824 13.3815 9.22162C13.3815 10.1648 12.7188 11.5667 10.2887 13.5804ZM0.543606 13.5804L1.18182 14.6C5.55114 11.5157 8.0549 7.76868 8.0549 4.68436C8.0549 1.70201 5.89479 0.300049 4.10288 0.300049C1.82003 0.300049 0.199951 2.28828 0.199951 4.37848C0.199951 6.1373 1.30455 7.64123 2.8019 8.20201C3.2192 8.35495 3.5874 8.4824 3.5874 9.22162C3.5874 10.1648 2.90009 11.5667 0.543606 13.5804Z" fill="#E1E8F1"/>
</svg>
