<svg width="17" height="15" viewBox="0 0 17 15" fill="none" xmlns="http://www.w3.org/2000/svg">
<path d="M7.26985 1.31966L6.66064 0.300049C2.44307 3.38436 0.0999756 7.13142 0.0999756 10.2157C0.0999756 13.1981 2.11504 14.6 3.8255 14.6C5.98115 14.6 7.50416 12.6118 7.50416 10.5216C7.50416 8.76279 6.4732 7.25887 5.09077 6.69809C4.69244 6.54515 4.31755 6.4177 4.31755 5.67848C4.31755 4.73534 4.95018 3.33338 7.26985 1.31966ZM16.5719 1.31966L15.9627 0.300049C11.792 3.38436 9.40207 7.13142 9.40207 10.2157C9.40207 13.1981 11.464 14.6 13.1745 14.6C15.3535 14.6 16.9 12.6118 16.9 10.5216C16.9 8.76279 15.8456 7.25887 14.4163 6.69809C14.018 6.54515 13.6665 6.4177 13.6665 5.67848C13.6665 4.73534 14.3226 3.33338 16.5719 1.31966Z" fill="#E1E8F1"/>
</svg>
